<mxfile host="app.diagrams.net" modified="2023-09-23T13:36:56.363Z" agent="Mozilla/5.0 (Windows NT 10.0; Win64; x64) AppleWebKit/537.36 (KHTML, like Gecko) Chrome/116.0.0.0 Safari/537.36" etag="O9Towh7fPmw1CHeJGenH" version="21.8.1" type="github">
  <diagram id="R2lEEEUBdFMjLlhIrx00" name="Page-1">
    <mxGraphModel dx="891" dy="1623" grid="1" gridSize="10" guides="1" tooltips="1" connect="1" arrows="1" fold="1" page="1" pageScale="1" pageWidth="850" pageHeight="1100" math="0" shadow="0" extFonts="Permanent Marker^https://fonts.googleapis.com/css?family=Permanent+Marker">
      <root>
        <mxCell id="0" />
        <mxCell id="1" parent="0" />
        <mxCell id="gkzm2Iovf9U_LlAAw7v1-2" value="&lt;font style=&quot;vertical-align: inherit;&quot;&gt;&lt;font style=&quot;vertical-align: inherit;&quot;&gt;cnpj&lt;/font&gt;&lt;/font&gt;" style="edgeStyle=orthogonalEdgeStyle;rounded=0;orthogonalLoop=1;jettySize=auto;html=1;exitX=0;exitY=0.25;exitDx=0;exitDy=0;endArrow=oval;endFill=1;fillColor=#0050ef;strokeColor=#001DBC;" edge="1" parent="1" source="gkzm2Iovf9U_LlAAw7v1-1">
          <mxGeometry x="1" y="-20" relative="1" as="geometry">
            <mxPoint x="200" y="510.42857142857156" as="targetPoint" />
            <mxPoint as="offset" />
          </mxGeometry>
        </mxCell>
        <mxCell id="gkzm2Iovf9U_LlAAw7v1-3" value="&lt;font style=&quot;vertical-align: inherit;&quot;&gt;&lt;font style=&quot;vertical-align: inherit;&quot;&gt;Nome&lt;/font&gt;&lt;/font&gt;" style="edgeStyle=orthogonalEdgeStyle;rounded=0;orthogonalLoop=1;jettySize=auto;html=1;exitX=0;exitY=0.5;exitDx=0;exitDy=0;endArrow=oval;endFill=0;" edge="1" parent="1" source="gkzm2Iovf9U_LlAAw7v1-1">
          <mxGeometry x="0.9905" y="20" relative="1" as="geometry">
            <mxPoint x="200" y="529.8571428571429" as="targetPoint" />
            <mxPoint as="offset" />
          </mxGeometry>
        </mxCell>
        <mxCell id="gkzm2Iovf9U_LlAAw7v1-5" value="" style="edgeStyle=orthogonalEdgeStyle;rounded=0;orthogonalLoop=1;jettySize=auto;html=1;endArrow=none;endFill=0;" edge="1" parent="1" source="gkzm2Iovf9U_LlAAw7v1-1" target="gkzm2Iovf9U_LlAAw7v1-4">
          <mxGeometry relative="1" as="geometry" />
        </mxCell>
        <mxCell id="gkzm2Iovf9U_LlAAw7v1-1" value="&lt;font style=&quot;vertical-align: inherit;&quot;&gt;&lt;font style=&quot;vertical-align: inherit;&quot;&gt;Clinica&lt;/font&gt;&lt;/font&gt;" style="whiteSpace=wrap;html=1;aspect=fixed;" vertex="1" parent="1">
          <mxGeometry x="230" y="490" width="80" height="80" as="geometry" />
        </mxCell>
        <mxCell id="gkzm2Iovf9U_LlAAw7v1-7" value="" style="edgeStyle=orthogonalEdgeStyle;rounded=0;orthogonalLoop=1;jettySize=auto;html=1;" edge="1" parent="1" source="gkzm2Iovf9U_LlAAw7v1-4" target="gkzm2Iovf9U_LlAAw7v1-6">
          <mxGeometry relative="1" as="geometry" />
        </mxCell>
        <mxCell id="gkzm2Iovf9U_LlAAw7v1-4" value="&lt;font style=&quot;vertical-align: inherit;&quot;&gt;&lt;font style=&quot;vertical-align: inherit;&quot;&gt;existe/tem&lt;/font&gt;&lt;/font&gt;" style="rhombus;whiteSpace=wrap;html=1;" vertex="1" parent="1">
          <mxGeometry x="230" y="650" width="80" height="80" as="geometry" />
        </mxCell>
        <mxCell id="gkzm2Iovf9U_LlAAw7v1-10" style="edgeStyle=orthogonalEdgeStyle;rounded=0;orthogonalLoop=1;jettySize=auto;html=1;exitX=0;exitY=0;exitDx=0;exitDy=0;endArrow=oval;endFill=1;fillColor=#0050ef;strokeColor=#001DBC;" edge="1" parent="1" source="gkzm2Iovf9U_LlAAw7v1-6">
          <mxGeometry relative="1" as="geometry">
            <mxPoint x="180" y="820.1428571428571" as="targetPoint" />
          </mxGeometry>
        </mxCell>
        <mxCell id="gkzm2Iovf9U_LlAAw7v1-12" value="CPF" style="edgeLabel;html=1;align=center;verticalAlign=middle;resizable=0;points=[];" vertex="1" connectable="0" parent="gkzm2Iovf9U_LlAAw7v1-10">
          <mxGeometry x="0.8216" y="-1" relative="1" as="geometry">
            <mxPoint x="-23" y="1" as="offset" />
          </mxGeometry>
        </mxCell>
        <mxCell id="gkzm2Iovf9U_LlAAw7v1-13" style="edgeStyle=orthogonalEdgeStyle;rounded=0;orthogonalLoop=1;jettySize=auto;html=1;exitX=0;exitY=0.25;exitDx=0;exitDy=0;endArrow=oval;endFill=0;" edge="1" parent="1" source="gkzm2Iovf9U_LlAAw7v1-6">
          <mxGeometry relative="1" as="geometry">
            <mxPoint x="160" y="840" as="targetPoint" />
          </mxGeometry>
        </mxCell>
        <mxCell id="gkzm2Iovf9U_LlAAw7v1-14" value="Nome" style="edgeLabel;html=1;align=center;verticalAlign=middle;resizable=0;points=[];" vertex="1" connectable="0" parent="gkzm2Iovf9U_LlAAw7v1-13">
          <mxGeometry x="0.969" relative="1" as="geometry">
            <mxPoint x="-21" as="offset" />
          </mxGeometry>
        </mxCell>
        <mxCell id="gkzm2Iovf9U_LlAAw7v1-15" style="edgeStyle=orthogonalEdgeStyle;rounded=0;orthogonalLoop=1;jettySize=auto;html=1;exitX=0;exitY=0.5;exitDx=0;exitDy=0;endArrow=oval;endFill=0;" edge="1" parent="1" source="gkzm2Iovf9U_LlAAw7v1-6">
          <mxGeometry relative="1" as="geometry">
            <mxPoint x="160" y="860" as="targetPoint" />
          </mxGeometry>
        </mxCell>
        <mxCell id="gkzm2Iovf9U_LlAAw7v1-16" value="EnedereÃ§o" style="edgeLabel;html=1;align=center;verticalAlign=middle;resizable=0;points=[];" vertex="1" connectable="0" parent="gkzm2Iovf9U_LlAAw7v1-15">
          <mxGeometry x="0.9719" relative="1" as="geometry">
            <mxPoint x="-41" as="offset" />
          </mxGeometry>
        </mxCell>
        <mxCell id="gkzm2Iovf9U_LlAAw7v1-17" style="edgeStyle=orthogonalEdgeStyle;rounded=0;orthogonalLoop=1;jettySize=auto;html=1;exitX=0;exitY=0.75;exitDx=0;exitDy=0;endArrow=oval;endFill=0;" edge="1" parent="1" source="gkzm2Iovf9U_LlAAw7v1-6">
          <mxGeometry relative="1" as="geometry">
            <mxPoint x="170" y="880" as="targetPoint" />
          </mxGeometry>
        </mxCell>
        <mxCell id="gkzm2Iovf9U_LlAAw7v1-18" value="RG" style="edgeLabel;html=1;align=center;verticalAlign=middle;resizable=0;points=[];" vertex="1" connectable="0" parent="gkzm2Iovf9U_LlAAw7v1-17">
          <mxGeometry x="0.9175" relative="1" as="geometry">
            <mxPoint x="-22" as="offset" />
          </mxGeometry>
        </mxCell>
        <mxCell id="gkzm2Iovf9U_LlAAw7v1-19" style="edgeStyle=orthogonalEdgeStyle;rounded=0;orthogonalLoop=1;jettySize=auto;html=1;exitX=0;exitY=1;exitDx=0;exitDy=0;endArrow=oval;endFill=0;" edge="1" parent="1">
          <mxGeometry relative="1" as="geometry">
            <mxPoint x="160" y="910" as="targetPoint" />
            <mxPoint x="210" y="870" as="sourcePoint" />
            <Array as="points">
              <mxPoint x="210" y="890" />
              <mxPoint x="191" y="890" />
              <mxPoint x="191" y="910" />
            </Array>
          </mxGeometry>
        </mxCell>
        <mxCell id="gkzm2Iovf9U_LlAAw7v1-20" value="Telefone" style="edgeLabel;html=1;align=center;verticalAlign=middle;resizable=0;points=[];" vertex="1" connectable="0" parent="gkzm2Iovf9U_LlAAw7v1-19">
          <mxGeometry x="0.8413" relative="1" as="geometry">
            <mxPoint x="-47" as="offset" />
          </mxGeometry>
        </mxCell>
        <mxCell id="gkzm2Iovf9U_LlAAw7v1-22" value="" style="edgeStyle=orthogonalEdgeStyle;rounded=0;orthogonalLoop=1;jettySize=auto;html=1;" edge="1" parent="1" source="gkzm2Iovf9U_LlAAw7v1-6" target="gkzm2Iovf9U_LlAAw7v1-21">
          <mxGeometry relative="1" as="geometry" />
        </mxCell>
        <mxCell id="gkzm2Iovf9U_LlAAw7v1-36" style="edgeStyle=orthogonalEdgeStyle;rounded=0;orthogonalLoop=1;jettySize=auto;html=1;exitX=1;exitY=0.25;exitDx=0;exitDy=0;endArrow=none;endFill=0;" edge="1" parent="1" source="gkzm2Iovf9U_LlAAw7v1-6" target="gkzm2Iovf9U_LlAAw7v1-37">
          <mxGeometry relative="1" as="geometry">
            <mxPoint x="440" y="740" as="targetPoint" />
          </mxGeometry>
        </mxCell>
        <mxCell id="gkzm2Iovf9U_LlAAw7v1-38" style="edgeStyle=orthogonalEdgeStyle;rounded=0;orthogonalLoop=1;jettySize=auto;html=1;exitX=1;exitY=0.75;exitDx=0;exitDy=0;endArrow=none;endFill=0;" edge="1" parent="1" source="gkzm2Iovf9U_LlAAw7v1-6" target="gkzm2Iovf9U_LlAAw7v1-39">
          <mxGeometry relative="1" as="geometry">
            <mxPoint x="550" y="870" as="targetPoint" />
          </mxGeometry>
        </mxCell>
        <mxCell id="gkzm2Iovf9U_LlAAw7v1-6" value="Pacientes" style="whiteSpace=wrap;html=1;" vertex="1" parent="1">
          <mxGeometry x="210" y="820" width="120" height="60" as="geometry" />
        </mxCell>
        <mxCell id="gkzm2Iovf9U_LlAAw7v1-8" value="(1,n)" style="text;html=1;align=center;verticalAlign=middle;resizable=0;points=[];autosize=1;strokeColor=none;fillColor=none;" vertex="1" parent="1">
          <mxGeometry x="270" y="600" width="50" height="30" as="geometry" />
        </mxCell>
        <mxCell id="gkzm2Iovf9U_LlAAw7v1-9" value="(0,n)" style="text;html=1;align=center;verticalAlign=middle;resizable=0;points=[];autosize=1;strokeColor=none;fillColor=none;" vertex="1" parent="1">
          <mxGeometry x="265" y="768" width="50" height="30" as="geometry" />
        </mxCell>
        <mxCell id="gkzm2Iovf9U_LlAAw7v1-24" value="" style="edgeStyle=orthogonalEdgeStyle;rounded=0;orthogonalLoop=1;jettySize=auto;html=1;" edge="1" parent="1" source="gkzm2Iovf9U_LlAAw7v1-21" target="gkzm2Iovf9U_LlAAw7v1-23">
          <mxGeometry relative="1" as="geometry" />
        </mxCell>
        <mxCell id="gkzm2Iovf9U_LlAAw7v1-21" value="ocupa" style="rhombus;whiteSpace=wrap;html=1;" vertex="1" parent="1">
          <mxGeometry x="230" y="950" width="80" height="80" as="geometry" />
        </mxCell>
        <mxCell id="gkzm2Iovf9U_LlAAw7v1-26" value="" style="edgeStyle=orthogonalEdgeStyle;rounded=0;orthogonalLoop=1;jettySize=auto;html=1;" edge="1" parent="1" source="gkzm2Iovf9U_LlAAw7v1-23" target="gkzm2Iovf9U_LlAAw7v1-21">
          <mxGeometry relative="1" as="geometry" />
        </mxCell>
        <mxCell id="gkzm2Iovf9U_LlAAw7v1-28" style="edgeStyle=orthogonalEdgeStyle;rounded=0;orthogonalLoop=1;jettySize=auto;html=1;exitX=1;exitY=0;exitDx=0;exitDy=0;endArrow=oval;endFill=1;fillColor=#0050ef;strokeColor=#001DBC;" edge="1" parent="1" source="gkzm2Iovf9U_LlAAw7v1-23">
          <mxGeometry relative="1" as="geometry">
            <mxPoint x="520" y="959.7241379310344" as="targetPoint" />
          </mxGeometry>
        </mxCell>
        <mxCell id="gkzm2Iovf9U_LlAAw7v1-29" value="Numero" style="edgeLabel;html=1;align=center;verticalAlign=middle;resizable=0;points=[];" vertex="1" connectable="0" parent="gkzm2Iovf9U_LlAAw7v1-28">
          <mxGeometry x="0.9817" y="-2" relative="1" as="geometry">
            <mxPoint x="28" y="-1" as="offset" />
          </mxGeometry>
        </mxCell>
        <mxCell id="gkzm2Iovf9U_LlAAw7v1-30" style="edgeStyle=orthogonalEdgeStyle;rounded=0;orthogonalLoop=1;jettySize=auto;html=1;exitX=1;exitY=0.25;exitDx=0;exitDy=0;endArrow=oval;endFill=0;" edge="1" parent="1" source="gkzm2Iovf9U_LlAAw7v1-23">
          <mxGeometry relative="1" as="geometry">
            <mxPoint x="520" y="974.8965517241379" as="targetPoint" />
          </mxGeometry>
        </mxCell>
        <mxCell id="gkzm2Iovf9U_LlAAw7v1-31" value="Andar" style="edgeLabel;html=1;align=center;verticalAlign=middle;resizable=0;points=[];" vertex="1" connectable="0" parent="gkzm2Iovf9U_LlAAw7v1-30">
          <mxGeometry x="0.9542" y="-2" relative="1" as="geometry">
            <mxPoint x="20" y="-4" as="offset" />
          </mxGeometry>
        </mxCell>
        <mxCell id="gkzm2Iovf9U_LlAAw7v1-32" style="edgeStyle=orthogonalEdgeStyle;rounded=0;orthogonalLoop=1;jettySize=auto;html=1;exitX=1;exitY=0.5;exitDx=0;exitDy=0;endArrow=oval;endFill=0;" edge="1" parent="1" source="gkzm2Iovf9U_LlAAw7v1-23">
          <mxGeometry relative="1" as="geometry">
            <mxPoint x="520" y="990.0689655172414" as="targetPoint" />
          </mxGeometry>
        </mxCell>
        <mxCell id="gkzm2Iovf9U_LlAAw7v1-33" value="Tamanho" style="edgeLabel;html=1;align=center;verticalAlign=middle;resizable=0;points=[];" vertex="1" connectable="0" parent="gkzm2Iovf9U_LlAAw7v1-32">
          <mxGeometry x="0.7292" y="-1" relative="1" as="geometry">
            <mxPoint x="34" y="-1" as="offset" />
          </mxGeometry>
        </mxCell>
        <mxCell id="gkzm2Iovf9U_LlAAw7v1-34" style="edgeStyle=orthogonalEdgeStyle;rounded=0;orthogonalLoop=1;jettySize=auto;html=1;exitX=1;exitY=0.75;exitDx=0;exitDy=0;endArrow=oval;endFill=0;" edge="1" parent="1" source="gkzm2Iovf9U_LlAAw7v1-23">
          <mxGeometry relative="1" as="geometry">
            <mxPoint x="520" y="1005.2413793103449" as="targetPoint" />
          </mxGeometry>
        </mxCell>
        <mxCell id="gkzm2Iovf9U_LlAAw7v1-35" value="Categoria" style="edgeLabel;html=1;align=center;verticalAlign=middle;resizable=0;points=[];" vertex="1" connectable="0" parent="gkzm2Iovf9U_LlAAw7v1-34">
          <mxGeometry x="0.2656" relative="1" as="geometry">
            <mxPoint x="41" as="offset" />
          </mxGeometry>
        </mxCell>
        <mxCell id="gkzm2Iovf9U_LlAAw7v1-23" value="Quarto" style="whiteSpace=wrap;html=1;" vertex="1" parent="1">
          <mxGeometry x="370" y="960" width="120" height="60" as="geometry" />
        </mxCell>
        <mxCell id="gkzm2Iovf9U_LlAAw7v1-25" value="(0,1)" style="text;html=1;align=center;verticalAlign=middle;resizable=0;points=[];autosize=1;strokeColor=none;fillColor=none;" vertex="1" parent="1">
          <mxGeometry x="275" y="898" width="50" height="30" as="geometry" />
        </mxCell>
        <mxCell id="gkzm2Iovf9U_LlAAw7v1-27" value="(1,1)" style="text;html=1;align=center;verticalAlign=middle;resizable=0;points=[];autosize=1;strokeColor=none;fillColor=none;" vertex="1" parent="1">
          <mxGeometry x="315" y="958" width="50" height="30" as="geometry" />
        </mxCell>
        <mxCell id="gkzm2Iovf9U_LlAAw7v1-44" style="edgeStyle=orthogonalEdgeStyle;rounded=0;orthogonalLoop=1;jettySize=auto;html=1;exitX=1;exitY=1;exitDx=0;exitDy=0;endArrow=oval;endFill=0;" edge="1" parent="1" source="gkzm2Iovf9U_LlAAw7v1-37">
          <mxGeometry relative="1" as="geometry">
            <mxPoint x="520" y="762.8333333333335" as="targetPoint" />
          </mxGeometry>
        </mxCell>
        <mxCell id="gkzm2Iovf9U_LlAAw7v1-45" value="Hora_Visita" style="edgeLabel;html=1;align=center;verticalAlign=middle;resizable=0;points=[];" vertex="1" connectable="0" parent="gkzm2Iovf9U_LlAAw7v1-44">
          <mxGeometry x="0.9784" y="-5" relative="1" as="geometry">
            <mxPoint x="35" y="-3" as="offset" />
          </mxGeometry>
        </mxCell>
        <mxCell id="gkzm2Iovf9U_LlAAw7v1-46" style="edgeStyle=orthogonalEdgeStyle;rounded=0;orthogonalLoop=1;jettySize=auto;html=1;exitX=1;exitY=0.5;exitDx=0;exitDy=0;endArrow=none;endFill=0;" edge="1" parent="1" source="gkzm2Iovf9U_LlAAw7v1-37">
          <mxGeometry relative="1" as="geometry">
            <mxPoint x="560" y="690" as="targetPoint" />
            <Array as="points">
              <mxPoint x="560" y="745" />
            </Array>
          </mxGeometry>
        </mxCell>
        <mxCell id="gkzm2Iovf9U_LlAAw7v1-37" value="ResponsÃ¡vel" style="rhombus;whiteSpace=wrap;html=1;" vertex="1" parent="1">
          <mxGeometry x="400" y="710" width="100" height="70" as="geometry" />
        </mxCell>
        <mxCell id="gkzm2Iovf9U_LlAAw7v1-39" value="Tratamento" style="rhombus;whiteSpace=wrap;html=1;" vertex="1" parent="1">
          <mxGeometry x="550" y="830" width="100" height="80" as="geometry" />
        </mxCell>
        <mxCell id="gkzm2Iovf9U_LlAAw7v1-42" value="(0,n)" style="text;html=1;align=center;verticalAlign=middle;resizable=0;points=[];autosize=1;strokeColor=none;fillColor=none;" vertex="1" parent="1">
          <mxGeometry x="355" y="838" width="50" height="30" as="geometry" />
        </mxCell>
        <mxCell id="gkzm2Iovf9U_LlAAw7v1-43" value="(0,n)" style="text;html=1;align=center;verticalAlign=middle;resizable=0;points=[];autosize=1;strokeColor=none;fillColor=none;" vertex="1" parent="1">
          <mxGeometry x="350" y="808" width="50" height="30" as="geometry" />
        </mxCell>
        <mxCell id="gkzm2Iovf9U_LlAAw7v1-48" value="MÃ©dico" style="rounded=0;whiteSpace=wrap;html=1;" vertex="1" parent="1">
          <mxGeometry x="530" y="630" width="120" height="60" as="geometry" />
        </mxCell>
        <mxCell id="gkzm2Iovf9U_LlAAw7v1-50" style="edgeStyle=orthogonalEdgeStyle;rounded=0;orthogonalLoop=1;jettySize=auto;html=1;exitX=0.5;exitY=0;exitDx=0;exitDy=0;entryX=0.576;entryY=1.006;entryDx=0;entryDy=0;entryPerimeter=0;endArrow=none;endFill=0;" edge="1" parent="1" source="gkzm2Iovf9U_LlAAw7v1-39" target="gkzm2Iovf9U_LlAAw7v1-48">
          <mxGeometry relative="1" as="geometry" />
        </mxCell>
      </root>
    </mxGraphModel>
  </diagram>
</mxfile>
